<svg xmlns="http://www.w3.org/2000/svg" viewBox="0 0 512 512">
  <defs>
    <linearGradient id="g" x1="0%" y1="0%" x2="100%" y2="100%">
      <stop offset="0%" stop-color="#FF6B9D"/>
      <stop offset="100%" stop-color="#4ECDC4"/>
    </linearGradient>
    <filter id="glow" x="-50%" y="-50%" width="200%" height="200%">
      <feGaussianBlur stdDeviation="12" result="blur"/>
      <feMerge>
        <feMergeNode in="blur"/>
        <feMergeNode in="SourceGraphic"/>
      </feMerge>
    </filter>
  </defs>
  <rect width="512" height="512" rx="120" fill="#0a0a0a"/>
  <circle cx="256" cy="256" r="200" fill="url(#g)" filter="url(#glow)"/>
  <!-- Stylized mask mark -->
  <g fill="#ffffff" opacity="0.95" transform="translate(156 140)">
    <path d="M196 72c0 72-60 124-120 124S-44 144 4 64C28 24 74 0 124 0s72 20 72 72z" opacity="0.9"/>
    <path d="M82 110c-14 0-26-10-26-22s12-22 26-22 26 10 26 22-12 22-26 22zm84 0c-14 0-26-10-26-22s12-22 26-22 26 10 26 22-12 22-26 22z" fill="#0a0a0a"/>
    <path d="M36 136c38 34 112 34 150 0" fill="none" stroke="#0a0a0a" stroke-width="14" stroke-linecap="round"/>
  </g>
</svg>
